<mxfile host="app.diagrams.net" modified="2021-04-23T09:01:45.771Z" agent="5.0 (Macintosh; Intel Mac OS X 10_15_6) AppleWebKit/605.1.15 (KHTML, like Gecko) Version/14.0.3 Safari/605.1.15" etag="RkCp-Hjo-oewjYcKfUYX" version="14.6.6" type="github">
  <diagram id="WLwhxCQDwhbza-G1gL6c" name="Page-1">
    <mxGraphModel dx="1340" dy="763" grid="1" gridSize="10" guides="1" tooltips="1" connect="1" arrows="1" fold="1" page="1" pageScale="1" pageWidth="850" pageHeight="1100" math="0" shadow="0">
      <root>
        <mxCell id="0" />
        <mxCell id="1" parent="0" />
        <mxCell id="koppty-2zxhme3oQqEqw-8" style="edgeStyle=orthogonalEdgeStyle;rounded=0;orthogonalLoop=1;jettySize=auto;html=1;entryX=0.5;entryY=0;entryDx=0;entryDy=0;entryPerimeter=0;startArrow=classic;startFill=1;sketch=0;" parent="1" source="koppty-2zxhme3oQqEqw-2" target="koppty-2zxhme3oQqEqw-4" edge="1">
          <mxGeometry relative="1" as="geometry" />
        </mxCell>
        <mxCell id="koppty-2zxhme3oQqEqw-9" style="edgeStyle=orthogonalEdgeStyle;rounded=0;orthogonalLoop=1;jettySize=auto;html=1;startArrow=classic;startFill=1;sketch=0;" parent="1" source="koppty-2zxhme3oQqEqw-2" target="koppty-2zxhme3oQqEqw-5" edge="1">
          <mxGeometry relative="1" as="geometry" />
        </mxCell>
        <mxCell id="koppty-2zxhme3oQqEqw-2" value="" style="aspect=fixed;html=1;points=[];align=center;image;fontSize=12;image=img/lib/azure2/iot/Function_Apps.svg;" parent="1" vertex="1">
          <mxGeometry x="350" y="340" width="204" height="180" as="geometry" />
        </mxCell>
        <mxCell id="koppty-2zxhme3oQqEqw-3" value="" style="aspect=fixed;html=1;points=[];align=center;image;fontSize=12;image=img/lib/azure2/storage/Storage_Accounts.svg;" parent="1" vertex="1">
          <mxGeometry x="230" y="640" width="37.5" height="30" as="geometry" />
        </mxCell>
        <mxCell id="koppty-2zxhme3oQqEqw-7" style="edgeStyle=orthogonalEdgeStyle;rounded=0;orthogonalLoop=1;jettySize=auto;html=1;entryX=0.027;entryY=0.633;entryDx=0;entryDy=0;entryPerimeter=0;endArrow=classic;endFill=1;startArrow=classic;startFill=1;" parent="1" source="koppty-2zxhme3oQqEqw-4" target="koppty-2zxhme3oQqEqw-3" edge="1">
          <mxGeometry relative="1" as="geometry" />
        </mxCell>
        <mxCell id="koppty-2zxhme3oQqEqw-4" value="" style="aspect=fixed;html=1;points=[];align=center;image;fontSize=12;image=img/lib/azure2/iot/Function_Apps.svg;" parent="1" vertex="1">
          <mxGeometry x="90" y="600" width="68" height="60" as="geometry" />
        </mxCell>
        <mxCell id="koppty-2zxhme3oQqEqw-10" style="edgeStyle=orthogonalEdgeStyle;rounded=0;orthogonalLoop=1;jettySize=auto;html=1;entryX=0.027;entryY=0.6;entryDx=0;entryDy=0;entryPerimeter=0;startArrow=classic;startFill=1;" parent="1" source="koppty-2zxhme3oQqEqw-5" target="koppty-2zxhme3oQqEqw-6" edge="1">
          <mxGeometry relative="1" as="geometry" />
        </mxCell>
        <mxCell id="koppty-2zxhme3oQqEqw-5" value="" style="aspect=fixed;html=1;points=[];align=center;image;fontSize=12;image=img/lib/azure2/iot/Function_Apps.svg;" parent="1" vertex="1">
          <mxGeometry x="390" y="600" width="68" height="60" as="geometry" />
        </mxCell>
        <mxCell id="koppty-2zxhme3oQqEqw-6" value="" style="aspect=fixed;html=1;points=[];align=center;image;fontSize=12;image=img/lib/azure2/storage/Storage_Accounts.svg;" parent="1" vertex="1">
          <mxGeometry x="530" y="640" width="37.5" height="30" as="geometry" />
        </mxCell>
        <mxCell id="koppty-2zxhme3oQqEqw-11" value="Surface / Proxy&amp;nbsp;&lt;br&gt;Azure Function App" style="rounded=1;whiteSpace=wrap;html=1;" parent="1" vertex="1">
          <mxGeometry x="554" y="340" width="220" height="60" as="geometry" />
        </mxCell>
        <mxCell id="gT2WrsuPar5wsiImq063-1" value="Azure Function App 1" style="rounded=1;whiteSpace=wrap;html=1;" vertex="1" parent="1">
          <mxGeometry x="190" y="550" width="92" height="40" as="geometry" />
        </mxCell>
        <mxCell id="gT2WrsuPar5wsiImq063-2" value="Azure Function App 2" style="rounded=1;whiteSpace=wrap;html=1;" vertex="1" parent="1">
          <mxGeometry x="490" y="550" width="92" height="40" as="geometry" />
        </mxCell>
        <mxCell id="gT2WrsuPar5wsiImq063-6" style="edgeStyle=orthogonalEdgeStyle;rounded=1;orthogonalLoop=1;jettySize=auto;html=1;shape=flexArrow;startArrow=block;" edge="1" parent="1" source="gT2WrsuPar5wsiImq063-4">
          <mxGeometry relative="1" as="geometry">
            <mxPoint x="430" y="339" as="targetPoint" />
          </mxGeometry>
        </mxCell>
        <mxCell id="gT2WrsuPar5wsiImq063-4" value="Topdesk &amp;nbsp;Env 1" style="rounded=1;whiteSpace=wrap;html=1;" vertex="1" parent="1">
          <mxGeometry x="91" y="100" width="120" height="60" as="geometry" />
        </mxCell>
        <mxCell id="gT2WrsuPar5wsiImq063-7" style="edgeStyle=orthogonalEdgeStyle;rounded=1;orthogonalLoop=1;jettySize=auto;html=1;targetPerimeterSpacing=8;sourcePerimeterSpacing=12;shape=flexArrow;sketch=0;shadow=0;endArrow=block;endFill=0;startArrow=block;endSize=5;startSize=8;exitX=0;exitY=0.5;exitDx=0;exitDy=0;" edge="1" parent="1" source="gT2WrsuPar5wsiImq063-5">
          <mxGeometry relative="1" as="geometry">
            <mxPoint x="483" y="337" as="targetPoint" />
          </mxGeometry>
        </mxCell>
        <mxCell id="gT2WrsuPar5wsiImq063-5" value="Autotask" style="rounded=1;whiteSpace=wrap;html=1;" vertex="1" parent="1">
          <mxGeometry x="654" y="100" width="120" height="60" as="geometry" />
        </mxCell>
        <mxCell id="gT2WrsuPar5wsiImq063-8" value="" style="endArrow=none;dashed=1;html=1;dashPattern=1 3;strokeWidth=2;shadow=0;sourcePerimeterSpacing=12;targetPerimeterSpacing=7;" edge="1" parent="1">
          <mxGeometry width="50" height="50" relative="1" as="geometry">
            <mxPoint x="810" y="570" as="sourcePoint" />
            <mxPoint x="840" y="570" as="targetPoint" />
          </mxGeometry>
        </mxCell>
        <mxCell id="gT2WrsuPar5wsiImq063-10" style="edgeStyle=orthogonalEdgeStyle;shape=flexArrow;rounded=1;orthogonalLoop=1;jettySize=auto;html=1;startArrow=block;endArrow=classic;exitX=1;exitY=0.5;exitDx=0;exitDy=0;" edge="1" parent="1" source="gT2WrsuPar5wsiImq063-9">
          <mxGeometry relative="1" as="geometry">
            <mxPoint x="380" y="339" as="targetPoint" />
          </mxGeometry>
        </mxCell>
        <mxCell id="gT2WrsuPar5wsiImq063-9" value="Topdesk Env 2" style="rounded=1;whiteSpace=wrap;html=1;" vertex="1" parent="1">
          <mxGeometry x="90" y="170" width="120" height="60" as="geometry" />
        </mxCell>
        <mxCell id="gT2WrsuPar5wsiImq063-11" value="" style="endArrow=none;dashed=1;html=1;dashPattern=1 3;strokeWidth=2;shadow=0;sourcePerimeterSpacing=12;targetPerimeterSpacing=7;" edge="1" parent="1">
          <mxGeometry width="50" height="50" relative="1" as="geometry">
            <mxPoint x="150" y="280" as="sourcePoint" />
            <mxPoint x="149.5" y="240" as="targetPoint" />
          </mxGeometry>
        </mxCell>
        <mxCell id="gT2WrsuPar5wsiImq063-23" style="edgeStyle=orthogonalEdgeStyle;rounded=0;orthogonalLoop=1;jettySize=auto;html=1;startArrow=classic;startFill=1;sketch=0;" edge="1" parent="1" target="gT2WrsuPar5wsiImq063-25">
          <mxGeometry relative="1" as="geometry">
            <mxPoint x="560" y="500" as="sourcePoint" />
          </mxGeometry>
        </mxCell>
        <mxCell id="gT2WrsuPar5wsiImq063-24" style="edgeStyle=orthogonalEdgeStyle;rounded=0;orthogonalLoop=1;jettySize=auto;html=1;entryX=0.027;entryY=0.6;entryDx=0;entryDy=0;entryPerimeter=0;startArrow=classic;startFill=1;" edge="1" parent="1" source="gT2WrsuPar5wsiImq063-25" target="gT2WrsuPar5wsiImq063-26">
          <mxGeometry relative="1" as="geometry" />
        </mxCell>
        <mxCell id="gT2WrsuPar5wsiImq063-25" value="" style="aspect=fixed;html=1;points=[];align=center;image;fontSize=12;image=img/lib/azure2/iot/Function_Apps.svg;" vertex="1" parent="1">
          <mxGeometry x="610" y="600" width="68" height="60" as="geometry" />
        </mxCell>
        <mxCell id="gT2WrsuPar5wsiImq063-26" value="" style="aspect=fixed;html=1;points=[];align=center;image;fontSize=12;image=img/lib/azure2/storage/Storage_Accounts.svg;" vertex="1" parent="1">
          <mxGeometry x="750" y="640" width="37.5" height="30" as="geometry" />
        </mxCell>
        <mxCell id="gT2WrsuPar5wsiImq063-27" value="Azure Function App 2" style="rounded=1;whiteSpace=wrap;html=1;" vertex="1" parent="1">
          <mxGeometry x="710" y="550" width="92" height="40" as="geometry" />
        </mxCell>
      </root>
    </mxGraphModel>
  </diagram>
</mxfile>
